<svg width="23" height="38" viewBox="0 0 23 38" fill="none" xmlns="http://www.w3.org/2000/svg"><path d="M14.969 0.388 C 12.704 0.605,10.528 1.612,8.841 3.222 C 7.195 4.794,6.156 6.812,5.766 9.200 C 5.712 9.529,5.695 9.976,5.677 11.634 L 5.654 13.666 3.910 13.685 C 2.232 13.703,2.158 13.707,1.963 13.787 C 1.292 14.062,0.802 14.660,0.692 15.336 C 0.638 15.673,0.638 22.316,0.692 22.652 C 0.825 23.469,1.524 24.169,2.341 24.301 C 2.483 24.324,3.245 24.341,4.130 24.341 L 5.673 24.342 5.673 30.141 C 5.673 36.447,5.663 36.134,5.884 36.571 C 6.022 36.842,6.434 37.264,6.698 37.404 C 7.172 37.655,6.964 37.643,11.002 37.643 C 14.993 37.643,14.823 37.652,15.265 37.428 C 15.512 37.303,15.900 36.930,16.061 36.663 C 16.342 36.196,16.325 36.606,16.328 30.142 L 16.330 24.347 18.007 24.334 C 19.642 24.321,19.690 24.318,19.933 24.232 C 20.561 24.010,21.003 23.585,21.202 23.010 C 21.244 22.888,21.667 21.237,22.143 19.339 C 22.993 15.944,23.006 15.884,22.990 15.563 C 22.953 14.835,22.542 14.204,21.888 13.875 C 21.515 13.687,21.494 13.686,18.831 13.685 L 16.330 13.685 16.330 12.343 L 16.330 11.002 18.774 11.001 C 21.470 11.000,21.493 10.999,21.942 10.761 C 22.241 10.603,22.601 10.243,22.759 9.944 C 23.005 9.481,22.999 9.584,22.999 5.653 C 23.000 1.767,23.006 1.886,22.781 1.418 C 22.657 1.161,22.215 0.711,21.943 0.566 C 21.521 0.342,21.570 0.345,18.306 0.350 C 16.660 0.353,15.159 0.370,14.969 0.388 M19.004 5.664 L 18.994 6.996 17.154 7.018 C 15.155 7.042,15.204 7.037,14.609 7.279 C 13.692 7.652,12.891 8.481,12.570 9.389 C 12.342 10.033,12.343 10.010,12.344 13.118 C 12.344 16.212,12.340 16.150,12.561 16.593 C 12.720 16.912,13.114 17.289,13.459 17.454 C 13.615 17.528,13.845 17.608,13.970 17.630 C 14.114 17.657,14.972 17.672,16.320 17.672 C 18.325 17.672,18.442 17.675,18.423 17.739 C 18.412 17.776,18.262 18.371,18.090 19.061 L 17.777 20.317 16.060 20.317 C 15.051 20.317,14.218 20.334,14.042 20.358 C 13.266 20.464,12.602 21.053,12.399 21.817 C 12.353 21.991,12.344 22.920,12.344 27.840 L 12.343 33.657 11.002 33.657 L 9.660 33.657 9.660 27.857 C 9.660 22.812,9.652 22.029,9.602 21.836 C 9.397 21.048,8.750 20.466,7.961 20.358 C 7.790 20.334,7.017 20.317,6.169 20.317 L 4.677 20.317 4.677 18.994 L 4.677 17.672 6.241 17.672 C 7.191 17.672,7.895 17.655,8.033 17.630 C 8.701 17.509,9.284 17.016,9.549 16.349 L 9.640 16.119 9.664 13.072 C 9.689 9.890,9.695 9.756,9.868 9.095 C 10.455 6.842,12.218 5.093,14.471 4.529 C 14.760 4.456,15.202 4.386,15.544 4.357 C 15.628 4.350,16.444 4.342,17.356 4.338 L 19.014 4.332 19.004 5.664 " stroke="none" fill-rule="evenodd" fill="black"></path></svg>