<svg width="93" height="93" viewBox="0 0 93 93" fill="none" xmlns="http://www.w3.org/2000/svg" xmlns:xlink="http://www.w3.org/1999/xlink"><path d="M43.555 0.090 C 36.417 0.694,31.250 2.065,25.497 4.881 C 13.268 10.869,3.882 22.620,0.919 35.650 C 0.735 36.460,0.480 37.576,0.352 38.130 C 0.172 38.909,0.103 40.613,0.047 45.648 C -0.031 52.771,0.001 53.218,0.849 56.893 C 3.260 67.334,9.018 76.342,17.593 83.088 C 18.189 83.557,18.852 84.059,19.065 84.202 C 19.278 84.346,19.861 84.745,20.359 85.089 C 20.858 85.433,21.297 85.715,21.336 85.715 C 21.374 85.715,21.803 85.970,22.289 86.281 C 23.329 86.946,26.331 88.505,26.574 88.505 C 26.666 88.505,26.995 88.641,27.304 88.806 C 27.613 88.972,27.899 89.075,27.938 89.035 C 27.978 88.995,28.099 89.069,28.207 89.199 C 28.499 89.551,28.790 89.486,29.067 89.009 C 29.203 88.774,29.278 88.705,29.232 88.854 C 29.132 89.184,29.381 89.219,29.506 88.892 C 29.555 88.765,29.733 88.660,29.901 88.660 C 30.310 88.660,30.431 88.430,30.146 88.194 C 29.812 87.917,29.862 87.680,30.234 87.777 C 30.465 87.838,30.512 87.811,30.403 87.679 C 30.294 87.548,30.377 87.493,30.699 87.481 C 30.963 87.472,31.106 87.529,31.049 87.621 C 30.995 87.708,31.029 87.730,31.124 87.671 C 31.219 87.613,31.257 87.463,31.209 87.338 C 31.161 87.212,31.193 87.110,31.280 87.110 C 31.367 87.110,31.636 86.901,31.878 86.645 C 32.353 86.142,32.773 85.987,32.327 86.479 C 32.067 86.767,32.070 86.775,32.392 86.691 C 32.666 86.619,32.709 86.528,32.627 86.199 C 32.571 85.977,32.444 85.744,32.344 85.680 C 32.235 85.611,32.228 85.564,32.325 85.562 C 32.415 85.561,32.576 85.647,32.683 85.754 C 32.840 85.909,32.855 85.886,32.763 85.638 C 32.656 85.352,32.670 85.346,32.938 85.560 C 33.098 85.688,33.182 85.713,33.123 85.615 C 33.024 85.449,33.416 85.171,33.674 85.225 C 33.738 85.239,33.790 85.143,33.790 85.012 C 33.790 84.671,34.263 83.996,34.429 84.100 C 34.507 84.147,34.524 84.269,34.467 84.369 C 34.394 84.499,34.424 84.498,34.569 84.363 C 34.723 84.220,34.733 84.084,34.608 83.811 C 34.397 83.346,34.639 82.820,34.947 83.075 C 35.098 83.200,35.179 83.173,35.269 82.968 C 35.335 82.816,35.378 82.640,35.365 82.576 C 35.351 82.512,35.408 82.460,35.491 82.460 C 35.574 82.460,35.608 82.687,35.567 82.964 C 35.526 83.241,35.537 83.363,35.592 83.235 C 35.647 83.107,35.769 82.904,35.865 82.784 C 35.960 82.663,36.038 82.438,36.038 82.283 C 36.038 81.892,36.330 81.905,36.425 82.301 C 36.490 82.572,36.531 82.535,36.673 82.078 C 36.809 81.641,36.802 81.530,36.639 81.530 C 36.512 81.530,36.470 81.632,36.529 81.801 C 36.618 82.054,36.606 82.055,36.351 81.816 C 35.786 81.285,36.658 80.971,37.253 81.491 C 37.424 81.640,37.514 81.678,37.453 81.574 C 37.345 81.389,37.864 80.737,38.091 80.773 C 38.398 80.822,38.494 80.735,38.285 80.598 C 38.081 80.464,38.080 80.427,38.281 80.298 C 38.406 80.218,38.460 80.103,38.401 80.044 C 38.342 79.985,34.577 79.894,30.035 79.842 L 21.777 79.748 21.040 79.314 C 20.529 79.014,20.162 78.634,19.841 78.074 L 19.378 77.267 19.378 46.655 L 19.378 16.043 19.744 15.257 C 21.009 12.541,24.656 12.547,25.904 15.268 C 26.176 15.862,26.188 17.077,26.192 44.471 L 26.195 73.054 31.504 72.953 C 34.424 72.898,38.825 72.852,41.286 72.851 L 45.759 72.850 45.664 72.472 C 45.565 72.077,45.793 71.774,45.935 72.113 C 45.994 72.253,46.065 72.232,46.189 72.036 C 46.283 71.887,46.514 71.764,46.701 71.763 C 46.978 71.761,46.999 71.732,46.810 71.610 C 46.603 71.476,46.603 71.459,46.810 71.455 C 47.009 71.451,47.011 71.430,46.820 71.309 C 46.647 71.200,46.638 71.120,46.780 70.949 C 46.880 70.828,46.911 70.668,46.847 70.593 C 46.784 70.519,46.860 70.556,47.016 70.675 C 47.241 70.848,47.323 70.852,47.420 70.697 C 47.486 70.589,47.673 70.524,47.834 70.552 C 48.039 70.587,48.130 70.509,48.135 70.293 C 48.139 70.122,48.219 69.998,48.313 70.016 C 48.411 70.035,48.449 69.920,48.404 69.745 C 48.319 69.421,48.720 69.300,48.902 69.595 C 49.029 69.800,49.290 69.794,49.290 69.586 C 49.290 69.496,49.228 69.460,49.153 69.507 C 49.077 69.553,48.980 69.458,48.938 69.295 C 48.884 69.091,48.925 69.023,49.069 69.078 C 49.197 69.127,49.371 68.958,49.519 68.640 C 49.651 68.356,49.720 68.262,49.671 68.433 C 49.587 68.730,49.594 68.732,49.863 68.466 C 50.107 68.224,50.113 68.170,49.910 68.042 C 49.735 67.931,49.803 67.894,50.181 67.892 C 50.458 67.891,50.685 67.816,50.685 67.726 C 50.685 67.636,50.616 67.604,50.532 67.656 C 50.444 67.710,50.418 67.649,50.470 67.513 C 50.539 67.332,50.631 67.313,50.855 67.433 C 51.017 67.520,51.150 67.668,51.150 67.761 C 51.150 67.855,51.290 67.754,51.460 67.538 C 51.813 67.089,51.861 66.890,51.576 67.053 C 51.470 67.115,51.434 67.108,51.497 67.038 C 51.561 66.968,51.533 66.816,51.437 66.699 C 51.340 66.583,51.306 66.443,51.360 66.388 C 51.415 66.333,51.460 66.370,51.460 66.469 C 51.460 66.717,52.003 66.698,52.215 66.442 C 52.310 66.328,52.336 66.173,52.272 66.098 C 52.209 66.024,52.283 66.059,52.437 66.178 C 52.677 66.361,52.711 66.361,52.670 66.172 C 52.644 66.051,52.553 65.901,52.468 65.839 C 52.378 65.773,52.420 65.724,52.565 65.722 C 52.704 65.721,52.899 65.621,53.000 65.500 C 53.149 65.320,53.127 65.294,52.881 65.358 C 52.716 65.402,52.537 65.368,52.485 65.283 C 52.430 65.194,52.511 65.161,52.680 65.205 C 52.871 65.255,53.137 65.105,53.461 64.764 C 53.807 64.399,53.920 64.339,53.845 64.558 C 53.756 64.818,53.774 64.835,53.956 64.663 C 54.140 64.489,54.126 64.424,53.862 64.221 C 53.563 63.991,53.565 63.987,53.939 64.099 C 54.284 64.203,54.303 64.188,54.114 63.960 C 53.944 63.756,53.940 63.659,54.095 63.473 C 54.309 63.215,54.634 63.150,54.483 63.395 C 54.428 63.483,54.558 63.550,54.783 63.550 C 55.002 63.550,55.180 63.476,55.180 63.386 C 55.180 63.296,55.116 63.261,55.038 63.309 C 54.960 63.358,54.974 63.192,55.068 62.941 C 55.163 62.690,55.291 62.515,55.352 62.553 C 55.413 62.591,55.492 62.538,55.526 62.435 C 55.560 62.332,55.845 62.248,56.159 62.248 C 56.776 62.248,56.861 62.147,56.498 61.845 C 56.337 61.712,56.265 61.706,56.265 61.826 C 56.265 61.922,56.181 62.000,56.079 62.000 C 55.691 62.000,56.269 61.623,56.694 61.599 C 57.340 61.563,57.376 61.548,57.262 61.363 C 57.188 61.244,57.116 61.256,57.023 61.402 C 56.914 61.574,56.889 61.570,56.885 61.380 C 56.881 61.174,56.863 61.174,56.734 61.379 C 56.618 61.563,56.549 61.571,56.395 61.417 C 56.196 61.218,56.204 61.215,56.885 61.159 C 57.013 61.148,57.108 61.019,57.096 60.872 C 57.069 60.537,57.185 60.532,57.422 60.856 C 57.540 61.017,57.718 61.072,57.917 61.009 C 58.282 60.893,58.344 60.465,57.983 60.551 C 57.669 60.625,57.240 60.351,57.414 60.187 C 57.488 60.119,57.579 60.150,57.617 60.256 C 57.741 60.606,57.994 60.461,57.887 60.101 C 57.784 59.756,57.786 59.756,58.043 60.063 C 58.301 60.370,58.302 60.369,58.229 60.024 C 58.169 59.743,58.222 59.675,58.503 59.675 C 58.708 59.675,58.929 59.530,59.036 59.326 C 59.181 59.050,59.201 59.042,59.128 59.288 C 59.055 59.536,59.075 59.559,59.232 59.404 C 59.509 59.129,59.726 59.164,59.611 59.464 C 59.529 59.677,59.552 59.687,59.749 59.523 C 60.057 59.267,60.047 59.059,59.714 58.806 C 59.534 58.669,59.511 58.598,59.645 58.595 C 59.760 58.592,59.800 58.511,59.736 58.409 C 59.663 58.289,59.706 58.259,59.865 58.320 C 60.036 58.385,60.085 58.336,60.036 58.148 C 59.998 58.003,60.145 57.677,60.363 57.423 C 60.581 57.170,60.760 57.058,60.760 57.175 C 60.760 57.344,60.807 57.349,60.986 57.201 C 61.110 57.098,61.284 57.058,61.373 57.113 C 61.944 57.466,61.019 56.151,57.779 52.002 C 57.113 51.150,56.242 50.034,55.843 49.523 C 55.444 49.011,54.818 48.209,54.451 47.740 C 54.085 47.271,52.624 45.388,51.204 43.555 C 49.784 41.722,48.431 39.978,48.197 39.680 C 47.962 39.382,46.351 37.314,44.617 35.085 C 42.882 32.856,40.904 30.317,40.222 29.444 C 37.319 25.726,37.454 25.959,37.448 24.645 C 37.436 22.441,38.970 21.057,41.174 21.282 C 42.638 21.432,42.534 21.328,47.508 27.668 C 47.976 28.264,49.236 29.868,50.308 31.232 C 51.379 32.596,53.036 34.712,53.989 35.934 C 54.943 37.156,56.315 38.907,57.040 39.825 C 57.765 40.742,59.055 42.385,59.907 43.475 C 60.760 44.565,61.806 45.893,62.233 46.427 C 62.659 46.961,63.705 48.277,64.557 49.351 C 65.409 50.426,66.163 51.305,66.232 51.305 C 66.302 51.305,66.315 51.376,66.261 51.462 C 66.208 51.549,66.375 51.661,66.637 51.713 C 66.897 51.765,67.071 51.870,67.024 51.946 C 66.977 52.023,66.867 52.041,66.779 51.986 C 66.681 51.926,66.688 52.016,66.795 52.216 C 66.892 52.397,67.007 52.545,67.052 52.545 C 67.097 52.545,67.090 52.475,67.037 52.390 C 66.985 52.305,66.995 52.149,67.060 52.044 C 67.224 51.779,67.245 51.302,67.089 51.399 C 67.018 51.443,66.960 51.404,66.960 51.314 C 66.960 51.224,67.030 51.150,67.115 51.150 C 67.200 51.150,67.270 51.076,67.270 50.986 C 67.270 50.896,67.201 50.864,67.117 50.916 C 67.025 50.973,67.005 50.902,67.068 50.740 C 67.132 50.573,67.196 50.540,67.234 50.654 C 67.322 50.919,67.552 50.885,67.990 50.540 C 68.460 50.170,68.445 50.220,68.218 49.755 C 68.046 49.405,68.050 49.395,68.254 49.648 C 68.491 49.942,68.776 49.750,68.578 49.430 C 68.513 49.324,68.582 49.283,68.763 49.321 C 68.934 49.356,69.197 49.220,69.404 48.987 C 69.702 48.653,69.779 48.628,69.906 48.825 C 70.150 49.204,70.081 48.849,69.808 48.321 L 69.555 47.833 69.957 48.097 C 70.178 48.241,70.414 48.360,70.481 48.360 C 70.677 48.360,70.669 47.520,70.472 47.394 C 70.337 47.308,70.339 47.279,70.477 47.277 C 70.579 47.276,70.705 47.345,70.757 47.430 C 70.810 47.515,70.923 47.585,71.008 47.585 C 71.094 47.585,71.123 47.520,71.074 47.441 C 70.966 47.266,71.544 47.061,71.764 47.197 C 71.850 47.250,71.920 47.185,71.920 47.052 C 71.920 46.919,71.846 46.810,71.756 46.810 C 71.666 46.810,71.635 46.740,71.688 46.655 C 71.740 46.570,71.657 46.494,71.503 46.488 C 71.288 46.478,71.277 46.456,71.455 46.392 C 71.583 46.347,71.782 46.195,71.897 46.056 C 72.084 45.830,72.096 45.841,72.004 46.149 C 71.912 46.456,71.954 46.442,72.375 46.021 C 72.825 45.571,72.989 45.316,72.734 45.464 C 72.670 45.501,72.478 45.469,72.308 45.392 C 72.023 45.265,72.027 45.259,72.348 45.320 C 72.583 45.365,72.752 45.288,72.860 45.087 C 72.948 44.921,73.087 44.827,73.168 44.877 C 73.249 44.927,73.398 44.917,73.498 44.855 C 73.625 44.777,73.589 44.703,73.382 44.619 C 73.192 44.541,73.338 44.517,73.780 44.554 C 74.164 44.585,74.390 44.577,74.284 44.535 C 73.986 44.419,74.054 44.052,74.392 43.945 C 74.598 43.880,74.663 43.765,74.596 43.586 C 74.506 43.348,74.525 43.345,74.788 43.555 C 74.958 43.690,75.031 43.706,74.963 43.594 C 74.882 43.459,74.967 43.400,75.243 43.400 C 75.561 43.400,75.640 43.324,75.640 43.022 C 75.640 42.814,75.710 42.600,75.795 42.547 C 75.880 42.495,75.950 42.526,75.950 42.616 C 75.950 43.063,76.224 42.691,76.400 42.005 C 76.509 41.579,76.673 41.185,76.763 41.129 C 76.856 41.071,76.883 41.100,76.824 41.195 C 76.767 41.288,76.791 41.408,76.879 41.462 C 76.966 41.516,77.079 41.451,77.130 41.317 C 77.181 41.184,77.344 41.075,77.491 41.075 C 77.917 41.075,77.985 40.896,77.715 40.485 C 77.467 40.105,77.469 40.103,77.906 40.186 C 78.285 40.259,78.310 40.244,78.084 40.079 C 77.853 39.910,77.876 39.887,78.274 39.887 C 78.523 39.887,78.691 39.944,78.648 40.014 C 78.604 40.084,78.683 40.098,78.822 40.044 C 79.026 39.966,79.035 39.920,78.869 39.810 C 78.705 39.702,78.727 39.628,78.972 39.451 C 79.601 38.999,80.134 38.356,80.055 38.147 C 79.987 37.969,80.015 37.966,80.213 38.130 C 80.417 38.300,80.436 38.286,80.342 38.036 C 80.244 37.775,80.262 37.767,80.497 37.958 C 80.643 38.077,80.807 38.129,80.862 38.075 C 80.917 38.020,80.880 37.975,80.781 37.975 C 80.676 37.975,80.714 37.855,80.871 37.690 C 81.020 37.533,81.195 37.432,81.259 37.466 C 81.323 37.500,81.377 37.437,81.380 37.325 C 81.386 37.115,81.902 36.425,82.054 36.425 C 82.101 36.425,82.102 36.547,82.056 36.696 C 81.976 36.953,81.981 36.953,82.145 36.698 C 82.272 36.501,82.272 36.344,82.146 36.107 C 81.900 35.647,82.212 35.279,82.650 35.514 C 82.853 35.622,82.928 35.625,82.864 35.521 C 82.809 35.433,82.833 35.319,82.916 35.268 C 82.999 35.217,83.027 35.073,82.979 34.948 C 82.931 34.822,82.975 34.720,83.076 34.720 C 83.201 34.720,83.227 34.880,83.156 35.224 L 83.053 35.727 83.332 35.344 C 83.486 35.133,83.614 34.838,83.617 34.687 C 83.625 34.287,83.918 34.332,84.020 34.750 L 84.108 35.108 84.194 34.720 C 84.241 34.507,84.331 34.210,84.394 34.061 C 84.476 33.866,84.436 33.790,84.249 33.790 C 84.052 33.790,84.014 33.874,84.094 34.139 C 84.192 34.465,84.181 34.471,83.931 34.231 C 83.623 33.936,83.709 33.709,84.174 33.588 C 84.382 33.533,84.615 33.620,84.823 33.828 C 85.055 34.060,85.121 34.082,85.052 33.902 C 84.988 33.736,85.058 33.619,85.258 33.555 C 85.424 33.502,85.560 33.390,85.560 33.305 C 85.560 33.221,85.625 33.192,85.704 33.241 C 85.784 33.290,85.897 33.251,85.957 33.155 C 86.016 33.059,85.969 32.919,85.851 32.845 C 85.696 32.747,85.691 32.709,85.831 32.707 C 85.938 32.706,86.025 32.628,86.025 32.533 C 86.025 32.439,85.917 32.403,85.784 32.454 C 85.647 32.507,85.584 32.481,85.639 32.393 C 85.691 32.309,85.973 32.240,86.267 32.240 C 86.560 32.240,86.800 32.170,86.800 32.085 C 86.800 32.000,86.691 31.930,86.558 31.930 C 86.425 31.930,86.361 31.859,86.414 31.772 C 86.468 31.686,86.576 31.655,86.656 31.704 C 86.735 31.753,86.800 31.715,86.800 31.620 C 86.800 31.525,86.881 31.496,86.979 31.557 C 87.094 31.628,87.116 31.600,87.040 31.477 C 86.914 31.273,87.309 30.824,87.769 30.648 C 87.928 30.587,88.040 30.383,88.040 30.152 C 88.040 29.900,88.126 29.760,88.282 29.760 C 88.425 29.760,88.478 29.833,88.413 29.939 C 88.344 30.050,88.370 30.076,88.481 30.007 C 88.579 29.946,88.660 29.722,88.660 29.509 C 88.660 29.265,88.724 29.161,88.832 29.228 C 88.948 29.300,88.970 29.216,88.899 28.966 C 88.770 28.506,88.461 27.848,88.327 27.745 C 88.271 27.702,88.202 27.528,88.172 27.357 C 88.142 27.187,87.639 26.106,87.054 24.955 C 83.791 18.532,78.661 12.705,72.344 8.244 C 71.598 7.717,70.963 7.285,70.934 7.285 C 70.905 7.285,70.226 6.889,69.425 6.405 C 65.239 3.877,58.937 1.556,54.172 0.788 C 50.720 0.232,45.748 -0.095,43.555 0.090 M33.965 20.058 C 34.757 20.390,35.296 20.872,35.766 21.673 L 36.193 22.398 36.237 44.485 C 36.268 60.117,36.231 66.773,36.111 67.259 C 35.876 68.210,35.124 69.100,34.187 69.537 C 33.193 70.000,32.372 69.999,31.377 69.536 C 30.336 69.051,29.663 68.217,29.434 67.124 C 29.298 66.480,29.273 60.732,29.334 44.296 L 29.415 22.329 29.824 21.632 C 30.714 20.113,32.485 19.440,33.965 20.058 M88.463 29.079 C 88.412 29.130,88.278 29.136,88.166 29.091 C 88.042 29.041,88.079 29.005,88.260 28.997 C 88.423 28.991,88.515 29.027,88.463 29.079 M87.885 30.302 C 87.885 30.430,87.817 30.535,87.735 30.535 C 87.652 30.535,87.625 30.430,87.674 30.302 C 87.723 30.175,87.791 30.070,87.824 30.070 C 87.858 30.070,87.885 30.175,87.885 30.302 M85.203 33.082 C 85.007 33.230,84.981 33.313,85.118 33.358 C 85.248 33.402,85.225 33.456,85.048 33.524 C 84.844 33.602,84.785 33.539,84.785 33.243 C 84.785 32.948,84.865 32.861,85.134 32.865 C 85.462 32.870,85.466 32.882,85.203 33.082 M82.240 35.629 C 82.174 35.737,82.161 35.867,82.212 35.919 C 82.351 36.057,82.502 35.853,82.427 35.629 C 82.375 35.471,82.338 35.471,82.240 35.629 M79.941 38.937 C 79.657 39.229,79.753 39.305,80.115 39.076 C 80.232 39.001,80.302 38.878,80.270 38.800 C 80.238 38.723,80.090 38.785,79.941 38.937 M76.260 42.005 C 76.260 42.090,76.190 42.160,76.105 42.160 C 76.020 42.160,75.950 42.090,75.950 42.005 C 75.950 41.920,76.020 41.850,76.105 41.850 C 76.190 41.850,76.260 41.920,76.260 42.005 M75.407 43.710 C 75.460 43.795,75.534 43.865,75.572 43.865 C 75.609 43.865,75.640 43.795,75.640 43.710 C 75.640 43.625,75.566 43.555,75.476 43.555 C 75.386 43.555,75.355 43.625,75.407 43.710 M46.665 44.177 C 47.121 44.263,48.054 44.606,48.740 44.939 C 51.025 46.046,52.524 48.015,53.161 50.744 C 53.549 52.411,53.549 52.774,53.158 54.326 C 52.775 55.847,51.924 57.320,50.725 58.535 C 49.342 59.937,46.913 61.553,45.516 61.999 C 45.188 62.103,44.735 62.285,44.509 62.404 C 43.742 62.803,43.486 62.693,43.128 61.806 C 42.946 61.359,42.658 60.574,42.487 60.063 C 42.317 59.551,41.925 58.470,41.617 57.660 C 41.309 56.850,40.860 55.629,40.620 54.947 C 40.379 54.266,40.107 53.533,40.014 53.320 C 39.921 53.107,39.596 52.235,39.292 51.383 C 38.660 49.616,38.167 48.285,37.576 46.755 C 37.231 45.862,37.199 45.660,37.377 45.491 C 37.627 45.251,39.837 44.522,41.152 44.246 C 42.298 44.005,45.546 43.965,46.665 44.177 M72.944 45.195 C 72.894 45.325,72.917 45.392,72.994 45.345 C 73.071 45.297,73.165 45.346,73.203 45.453 C 73.241 45.560,73.325 45.599,73.390 45.539 C 73.454 45.479,73.401 45.324,73.271 45.194 C 73.060 44.983,73.026 44.983,72.944 45.195 M42.896 47.631 C 42.321 47.711,41.850 47.833,41.850 47.901 C 41.850 47.970,42.054 48.538,42.303 49.162 C 42.553 49.787,42.805 50.489,42.863 50.724 C 42.989 51.233,42.958 51.229,43.983 50.840 C 44.431 50.669,44.890 50.530,45.002 50.530 C 45.119 50.530,45.454 51.199,45.785 52.095 C 46.336 53.583,46.351 53.669,46.084 53.868 C 45.929 53.983,45.649 54.116,45.461 54.164 C 45.273 54.213,44.944 54.319,44.730 54.400 C 44.285 54.569,44.292 54.611,45.147 56.757 L 45.621 57.947 46.497 57.352 C 47.808 56.462,48.813 55.372,49.328 54.283 C 49.731 53.433,49.781 53.176,49.726 52.268 C 49.525 48.944,46.793 47.089,42.896 47.631 M68.823 49.829 C 68.701 49.976,68.689 50.065,68.792 50.065 C 68.979 50.065,69.198 49.771,69.090 49.663 C 69.051 49.624,68.931 49.699,68.823 49.829 M60.510 57.573 C 60.463 57.696,60.488 57.910,60.566 58.050 C 60.677 58.247,60.708 58.198,60.708 57.827 C 60.708 57.308,60.643 57.225,60.510 57.573 M60.915 57.505 C 60.915 57.590,61.024 57.660,61.157 57.660 C 61.290 57.660,61.355 57.590,61.303 57.505 C 61.250 57.420,61.141 57.350,61.061 57.350 C 60.981 57.350,60.915 57.420,60.915 57.505 M62.000 57.660 C 62.091 57.831,62.201 57.970,62.243 57.970 C 62.286 57.970,62.246 57.831,62.155 57.660 C 62.064 57.489,61.954 57.350,61.912 57.350 C 61.869 57.350,61.909 57.489,62.000 57.660 M61.294 57.984 C 61.237 58.076,61.253 58.215,61.329 58.291 C 61.412 58.374,61.469 58.305,61.469 58.123 C 61.469 57.771,61.440 57.748,61.294 57.984 M58.971 60.305 C 58.915 60.396,58.902 60.504,58.943 60.544 C 58.983 60.585,59.058 60.511,59.108 60.379 C 59.213 60.106,59.124 60.058,58.971 60.305 M55.180 63.085 C 55.180 63.170,55.250 63.240,55.335 63.240 C 55.420 63.240,55.490 63.170,55.490 63.085 C 55.490 63.000,55.420 62.930,55.335 62.930 C 55.250 62.930,55.180 63.000,55.180 63.085 M54.095 63.705 C 54.095 63.790,54.165 63.860,54.250 63.860 C 54.335 63.860,54.405 63.790,54.405 63.705 C 54.405 63.620,54.335 63.550,54.250 63.550 C 54.165 63.550,54.095 63.620,54.095 63.705 M52.700 66.866 C 52.700 66.899,52.808 66.968,52.941 67.019 C 53.078 67.072,53.141 67.046,53.086 66.958 C 52.995 66.811,52.700 66.740,52.700 66.866 M46.965 70.898 C 46.965 70.928,47.070 71.039,47.197 71.145 C 47.332 71.256,47.430 71.271,47.430 71.181 C 47.430 71.094,47.325 70.983,47.197 70.934 C 47.070 70.885,46.965 70.869,46.965 70.898 M37.618 80.667 C 37.422 80.815,37.396 80.898,37.533 80.943 C 37.663 80.987,37.640 81.041,37.463 81.109 C 37.273 81.182,37.200 81.129,37.200 80.917 C 37.200 80.669,37.375 80.543,37.820 80.468 C 37.863 80.461,37.772 80.550,37.618 80.667 M34.664 83.313 C 34.615 83.440,34.642 83.545,34.725 83.545 C 34.807 83.545,34.875 83.440,34.875 83.313 C 34.875 83.185,34.848 83.080,34.814 83.080 C 34.781 83.080,34.713 83.185,34.664 83.313 " stroke="none" fill="black" fill-rule="evenodd"></path></svg>