<svg width="39" height="38" viewBox="0 0 39 38" fill="none" xmlns="http://www.w3.org/2000/svg"><path d="M10.530 0.366 C 7.984 0.547,5.804 1.516,3.974 3.279 C 2.335 4.858,1.319 6.837,0.946 9.181 C 0.858 9.731,0.845 11.012,0.845 19.012 C 0.845 28.762,0.842 28.654,1.144 29.867 C 2.186 34.054,5.808 37.176,10.156 37.634 C 10.961 37.719,28.039 37.719,28.844 37.634 C 32.093 37.292,34.965 35.480,36.674 32.695 C 37.139 31.938,37.615 30.795,37.853 29.867 C 38.158 28.680,38.155 28.773,38.155 19.013 C 38.155 9.252,38.158 9.345,37.853 8.158 C 36.921 4.521,34.162 1.715,30.520 0.702 C 29.266 0.353,29.666 0.366,19.890 0.355 C 14.903 0.350,10.691 0.354,10.530 0.366 M29.395 4.531 C 31.804 5.217,33.522 7.028,34.039 9.426 C 34.151 9.945,34.157 10.505,34.157 19.012 C 34.157 29.033,34.180 28.476,33.731 29.640 C 33.106 31.261,31.623 32.724,30.035 33.286 C 28.898 33.688,29.399 33.670,19.500 33.670 C 9.601 33.670,10.102 33.688,8.965 33.286 C 7.153 32.645,5.605 30.960,5.072 29.051 C 4.820 28.147,4.801 27.315,4.826 18.395 C 4.849 10.483,4.859 9.811,4.966 9.360 C 5.504 7.091,7.131 5.312,9.305 4.620 C 10.103 4.365,10.097 4.366,19.663 4.377 L 28.893 4.388 29.395 4.531 M28.080 7.926 C 27.570 8.081,27.104 8.503,26.855 9.035 C 26.631 9.516,26.625 10.152,26.842 10.645 C 27.030 11.075,27.570 11.582,27.992 11.726 C 28.712 11.971,29.527 11.788,30.063 11.260 C 30.451 10.879,30.626 10.495,30.664 9.946 C 30.702 9.385,30.519 8.889,30.123 8.481 C 29.707 8.054,29.266 7.865,28.698 7.871 C 28.447 7.874,28.169 7.898,28.080 7.926 M18.200 10.373 C 16.248 10.686,14.202 11.837,12.986 13.306 C 12.430 13.978,12.212 14.308,11.867 14.994 C 11.500 15.725,11.302 16.256,11.109 17.030 C 10.975 17.570,10.955 17.803,10.955 18.883 C 10.954 19.844,10.980 20.239,11.074 20.667 C 11.447 22.374,12.144 23.691,13.324 24.919 C 14.587 26.233,15.919 26.986,17.726 27.405 C 18.389 27.559,18.633 27.584,19.533 27.585 C 20.105 27.586,20.763 27.550,20.995 27.505 C 24.041 26.920,26.412 25.027,27.570 22.254 C 28.535 19.944,28.442 17.308,27.315 15.048 C 26.957 14.330,26.758 14.031,26.173 13.336 C 24.885 11.806,23.201 10.838,21.060 10.398 C 20.463 10.275,18.896 10.261,18.200 10.373 M20.995 14.494 C 22.278 14.928,23.217 15.769,23.794 16.998 C 24.107 17.666,24.203 18.135,24.200 18.980 C 24.197 19.949,23.975 20.696,23.445 21.523 C 22.809 22.515,21.631 23.299,20.423 23.534 C 19.630 23.688,18.412 23.542,17.648 23.200 C 16.693 22.774,15.733 21.801,15.299 20.819 C 14.944 20.018,14.829 18.748,15.035 17.907 C 15.410 16.370,16.445 15.173,17.897 14.597 C 18.548 14.340,18.791 14.304,19.727 14.329 C 20.383 14.346,20.667 14.383,20.995 14.494 " stroke="none" fill-rule="evenodd" fill="black"></path></svg>