<svg width="40" height="35" viewBox="0 0 40 35" fill="none" xmlns="http://www.w3.org/2000/svg"><path d="M26.333 1.040 C 24.959 1.293,24.319 1.482,23.428 1.898 C 22.257 2.444,21.048 3.360,20.293 4.274 C 18.968 5.875,18.205 7.680,18.031 9.617 C 17.976 10.227,18.061 10.198,16.890 9.998 C 13.381 9.399,9.967 7.495,7.741 4.895 C 7.425 4.526,6.967 3.967,6.724 3.654 C 6.368 3.195,6.209 3.048,5.908 2.901 C 4.836 2.376,3.695 2.788,3.173 3.889 C 2.484 5.340,1.805 8.181,1.593 10.495 C 1.497 11.544,1.552 13.808,1.696 14.787 C 2.140 17.788,3.289 20.454,5.111 22.709 C 6.016 23.828,7.425 25.121,8.756 26.053 L 9.141 26.324 8.854 26.450 C 8.434 26.636,7.123 27.040,6.326 27.229 C 5.166 27.505,4.235 27.615,2.667 27.661 C 0.973 27.711,0.798 27.754,0.279 28.247 L 0.000 28.513 0.000 29.656 L 0.000 30.800 0.257 31.057 C 0.688 31.488,2.561 32.427,4.400 33.133 C 6.401 33.902,8.431 34.410,10.700 34.712 C 11.968 34.880,15.545 34.881,16.800 34.713 C 21.869 34.034,26.324 31.939,29.837 28.581 C 33.443 25.135,35.851 20.339,36.659 15.000 C 36.863 13.654,36.936 12.786,36.980 11.200 L 37.019 9.767 37.421 9.267 C 38.377 8.077,39.339 6.366,39.796 5.045 C 39.996 4.467,40.000 4.432,40.000 3.164 L 40.000 1.871 39.795 1.638 C 39.376 1.160,38.527 0.903,37.887 1.061 C 37.709 1.105,37.197 1.371,36.733 1.659 C 35.591 2.370,35.217 2.572,34.369 2.940 L 33.638 3.257 33.469 3.127 C 32.141 2.105,31.065 1.584,29.533 1.222 C 28.962 1.087,28.619 1.052,27.667 1.033 C 27.025 1.020,26.425 1.023,26.333 1.040 M28.801 5.154 C 29.885 5.457,30.598 5.878,31.457 6.719 C 32.122 7.372,32.518 7.556,33.183 7.522 C 33.412 7.510,33.600 7.517,33.600 7.538 C 33.600 7.559,33.522 7.649,33.427 7.738 C 33.202 7.948,32.948 8.450,32.893 8.795 C 32.869 8.946,32.887 9.391,32.934 9.784 C 33.087 11.078,32.856 13.892,32.436 15.827 C 30.704 23.826,24.796 29.426,16.767 30.681 C 15.965 30.806,15.551 30.827,13.833 30.830 C 11.923 30.833,11.372 30.797,10.167 30.590 C 9.947 30.552,9.722 30.507,9.667 30.490 C 9.612 30.472,9.882 30.340,10.267 30.195 C 11.765 29.632,14.126 28.331,14.738 27.729 C 15.293 27.184,15.472 26.377,15.199 25.647 C 14.960 25.007,14.720 24.803,13.489 24.192 C 10.183 22.553,8.000 20.507,6.740 17.867 C 5.774 15.841,5.365 13.315,5.597 10.800 C 5.681 9.882,5.835 8.876,5.900 8.811 C 5.920 8.791,6.093 8.924,6.285 9.108 C 8.492 11.219,12.000 13.033,15.277 13.758 C 16.730 14.079,17.470 14.158,19.067 14.163 C 20.513 14.167,20.577 14.161,20.867 14.011 C 21.289 13.792,21.633 13.438,21.811 13.040 C 21.950 12.728,21.967 12.567,22.008 11.100 C 22.046 9.751,22.075 9.422,22.197 9.000 C 22.586 7.647,23.554 6.392,24.734 5.713 C 25.119 5.491,25.855 5.212,26.367 5.095 C 26.879 4.977,28.293 5.011,28.801 5.154 " stroke="none" fill-rule="evenodd" fill="black"></path></svg>