<svg width="44" height="40" viewBox="0 0 44 40" fill="none" xmlns="http://www.w3.org/2000/svg">
<path fill-rule="evenodd" clip-rule="evenodd" d="M25.9729 1.47587C27.5278 0.831604 29.1944 0.5 30.8774 0.5C32.5605 0.5 34.2271 0.831605 35.7819 1.47587C37.3365 2.11998 38.7489 3.06399 39.9385 4.25399C41.1289 5.44382 42.0732 6.85653 42.7175 8.4114C43.3617 9.96628 43.6933 11.6329 43.6933 13.3159C43.6933 14.999 43.3617 16.6656 42.7175 18.2204C42.0733 19.7751 41.1291 21.1877 39.9389 22.3774C39.9388 22.3776 39.9391 22.3773 39.9389 22.3774L23.3639 38.9524C22.8951 39.4213 22.2592 39.6847 21.5962 39.6847C20.9331 39.6847 20.2972 39.4213 19.8284 38.9524L3.2534 22.3774C0.850139 19.9742 -0.5 16.7147 -0.5 13.3159C-0.5 9.91719 0.85014 6.65767 3.2534 4.25441C5.65667 1.85114 8.91619 0.501003 12.3149 0.501003C15.7136 0.501003 18.9732 1.85114 21.3764 4.25441L21.5962 4.47414L21.8155 4.25482C21.8156 4.25468 21.8153 4.25496 21.8155 4.25482C23.0052 3.06463 24.4182 2.12006 25.9729 1.47587ZM30.8774 5.5C29.8512 5.5 28.835 5.7022 27.8869 6.09504C26.9388 6.48789 26.0774 7.06368 25.3519 7.78953L23.3639 9.77744C22.3876 10.7538 20.8047 10.7538 19.8284 9.77744L17.8409 7.78994C16.3753 6.32436 14.3876 5.501 12.3149 5.501C10.2423 5.501 8.25452 6.32436 6.78894 7.78994C5.32336 9.25552 4.5 11.2433 4.5 13.3159C4.5 15.3886 5.32336 17.3763 6.78894 18.8419L21.5962 33.6491L36.4034 18.8419C37.1292 18.1164 37.7055 17.2546 38.0983 16.3065C38.4911 15.3584 38.6933 14.3422 38.6933 13.3159C38.6933 12.2897 38.4911 11.2735 38.0983 10.3254C37.7055 9.37726 37.1297 8.51586 36.4038 7.79036L36.403 7.78953C35.6775 7.06368 34.8161 6.48789 33.868 6.09504C32.9199 5.7022 31.9037 5.5 30.8774 5.5Z" fill="white"/>
</svg>
